<?xml version="1.0" encoding="UTF-8"?> <!-- Generator: Adobe Illustrator 25.3.1, SVG Export Plug-In . SVG Version: 6.00 Build 0) --> <svg xmlns="http://www.w3.org/2000/svg" xmlns:xlink="http://www.w3.org/1999/xlink" version="1.1" x="0px" y="0px" viewBox="0 0 43 43" style="enable-background:new 0 0 43 43;" xml:space="preserve"> <style type="text/css"> .st0{fill:#F9685A;} .st1{fill:#FFFFFF;} </style> <g id="Ebene_4"> </g> <g id="Ebene_3"> <g> <path class="st0" d="M38.2,43H4.8C2.2,43,0,40.8,0,38.2V4.8C0,2.2,2.2,0,4.8,0h33.4C40.8,0,43,2.2,43,4.8v33.4 C43,40.8,40.8,43,38.2,43"></path> <path class="st1" d="M23.9,33.5l6.7-2.9c0.4-0.2,0.7-0.6,0.7-1v-7.9c0-0.8-0.9-1.4-1.7-1l-6.7,2.9c-0.4,0.2-0.7,0.6-0.7,1v7.9 C22.2,33.3,23.1,33.9,23.9,33.5z"></path> <path class="st1" d="M19.8,23.6l-6.7-2.9c-0.8-0.3-1.7,0.2-1.7,1v7.9c0,0.4,0.3,0.8,0.7,1l6.7,2.9c0.8,0.3,1.7-0.2,1.7-1v-7.9 C20.5,24.2,20.2,23.8,19.8,23.6z"></path> <path class="st1" d="M29.4,18l-6.7-3.1c-0.8-0.4-1.8-0.4-2.6,0L13.4,18c-0.3,0.2-0.3,0.6,0,0.8l7.5,3.5c0.3,0.1,0.6,0.1,0.9,0 l7.5-3.5C29.7,18.6,29.7,18.1,29.4,18z"></path> <path class="st1" d="M20.8,8.7C22.8,9,24.4,7.4,24,5.5c-0.2-1.1-1.1-1.9-2.1-2.1C20,3,18.4,4.6,18.7,6.5 C18.9,7.6,19.8,8.5,20.8,8.7z"></path> <path class="st1" d="M20.9,10h1v3.3h-1V10z"></path> <path class="st1" d="M39.4,32.8c-1.4-1-3.3-0.5-4.1,1.1c-0.3,0.8-0.3,1.7,0.2,2.5c0.8,1.2,2.2,1.6,3.4,1.1 c0.9-0.4,1.5-1.2,1.6-2.2C40.6,34.3,40.2,33.3,39.4,32.8z"></path> <path class="st1" d="M6.8,37.2c0.9-0.6,1.3-1.8,1-2.8c-0.3-1.1-1.1-1.9-2.2-2.1c-0.1,0-0.3,0-0.4,0C4,32.3,3,33,2.6,34.1 c-0.4,1.1,0,2.3,1,3S5.8,37.9,6.8,37.2z"></path> <path class="st1" d="M10.5,30.5l0.6,0.8l-2.7,2l-0.6-0.8L10.5,30.5z"></path> <path class="st1" d="M31.7,31.3l0.6-0.8l2.7,1.9l-0.6,0.8L31.7,31.3z"></path> </g> </g> </svg> 