<?xml version="1.0" encoding="utf-8"?>
<!-- Generator: Adobe Illustrator 23.1.1, SVG Export Plug-In . SVG Version: 6.00 Build 0)  -->
<svg version="1.1" id="Ebene_1" xmlns="http://www.w3.org/2000/svg" xmlns:xlink="http://www.w3.org/1999/xlink" x="0px" y="0px"
	 width="43px" height="43px" viewBox="0 0 43 43" style="enable-background:new 0 0 43 43;" xml:space="preserve">
<style type="text/css">
	.st0{fill:#808080;}
	.st1{fill:#FFFFFF;}
</style>
<g id="Cockpit">
	<path class="st0" d="M38.2,43H4.8C2.2,43,0,40.8,0,38.2V4.8C0,2.2,2.2,0,4.8,0h33.4C40.8,0,43,2.2,43,4.8v33.4
		C43,40.8,40.8,43,38.2,43z"/>
	<path class="st1" d="M32.7,25.4c0-0.9,0.7-1.6,1.6-1.6h2.9c-0.2-1.7-0.6-3.4-1.4-5c-0.6-1.2-1.3-2.4-2.1-3.4l-2,2
		c-0.3,0.3-0.7,0.5-1.1,0.5s-0.8-0.2-1.1-0.5c-0.6-0.6-0.6-1.6,0-2.2l2-2c-2.4-2-5.3-3.2-8.4-3.5v2.9c0,0.9-0.7,1.6-1.6,1.6
		s-1.6-0.7-1.6-1.6V9.7c-1.7,0.2-3.4,0.6-5,1.4c-1.2,0.6-2.4,1.3-3.4,2.1l2,2c0.6,0.6,0.6,1.6,0,2.2c-0.3,0.3-0.7,0.5-1.1,0.5
		s-0.8-0.2-1.1-0.5l-2-2c-2,2.4-3.2,5.3-3.5,8.4h2.9c0.9,0,1.6,0.7,1.6,1.6S9.6,27,8.7,27H5.8c0.1,1.4,0.5,2.7,1,4h29.5
		c0.5-1.3,0.8-2.7,1-4h-2.9C33.5,27,32.7,26.3,32.7,25.4z M26.3,15.1L24,22.8c0.9,0.7,1.5,1.8,1.5,3.1c0,2.2-1.8,3.9-3.9,3.9
		c-2.2,0-3.9-1.8-3.9-3.9c0-2.2,1.8-3.9,3.9-3.9c0.1,0,0.1,0,0.2,0l3.9-7.1C25.8,14.4,26.4,14.7,26.3,15.1z"/>
</g>
</svg>
