<?xml version="1.0" encoding="utf-8"?>
<!-- Generator: Adobe Illustrator 23.1.1, SVG Export Plug-In . SVG Version: 6.00 Build 0)  -->
<svg version="1.1" id="Ebene_1" xmlns="http://www.w3.org/2000/svg" xmlns:xlink="http://www.w3.org/1999/xlink" x="0px" y="0px"
	 width="43px" height="43px" viewBox="0 0 43 43" style="enable-background:new 0 0 43 43;" xml:space="preserve">
<style type="text/css">
	.st0{fill:#262626;}
	.st1{fill:#FFFFFF;}
</style>
<g id="Compliancem">
	<path class="st0" d="M38.2,43H4.8C2.2,43,0,40.8,0,38.2V4.8C0,2.2,2.2,0,4.8,0h33.4C40.8,0,43,2.2,43,4.8v33.4
		C43,40.8,40.8,43,38.2,43z"/>
	<path class="st1" d="M27.8,24.7c0.4-0.7,0.6-1.6,0.6-2.5c0-0.8-0.1-1.6-0.4-2.2s-0.7-1.2-1.1-1.6c-0.5-0.5-1.1-1-1.7-1.4
		c-0.7-0.4-1.4-0.9-2.2-1.5c-0.3-0.2-0.9-0.6-1.7-1.1c-0.9-0.6-1.6-1.1-2-1.5c-0.5-0.5-0.7-1.1-0.7-1.8s0.3-1.3,0.8-1.8
		s1.2-0.8,2.1-0.8c0.8,0,1.4,0.2,1.9,0.5c0.4,0.3,0.9,0.8,1.3,1.4c0.4,0.5,0.6,0.9,0.8,1.1c0.1,0.1,0.3,0.2,0.5,0.2
		c0.3,0,0.5-0.1,0.7-0.3s0.3-0.5,0.3-0.8c0-0.5-0.1-0.9-0.4-1.4s-0.6-1-1.1-1.4s-1.1-0.8-1.8-1c-0.7-0.3-1.5-0.4-2.4-0.4
		c-1.1,0-2.1,0.2-3,0.7c-0.8,0.4-1.4,1-1.8,1.8c-0.4,0.7-0.6,1.5-0.6,2.4c0,1.3,0.5,2.5,1.5,3.5l0.5,0.5l-0.6,0.4
		c-1.8,1.1-2.7,2.5-2.7,4.3c0,0.7,0.1,1.2,0.2,1.7c0.2,0.5,0.4,0.9,0.7,1.2c0.3,0.4,0.6,0.7,1,1c0.4,0.3,0.8,0.7,1.2,1
		c1,0.7,2,1.5,3.1,2.2c1,0.7,1.8,1.3,2.3,1.7c0.5,0.4,1,0.8,1.2,1.3c0.3,0.5,0.5,1,0.5,1.5c0,0.8-0.3,1.5-0.9,2.1s-1.3,0.9-2.2,0.9
		c-1.6,0-2.8-0.9-3.4-2.5c-0.2-0.5-0.5-1-1-1.7c0,0-0.1-0.1-0.2-0.1C17,30,16.9,30,16.8,30c-0.3,0-0.6,0.1-0.8,0.4
		c-0.3,0.3-0.4,0.7-0.4,1.1c0,0.5,0.1,1.1,0.4,1.6c0.3,0.6,0.7,1.2,1.2,1.7c0.6,0.5,1.2,1,2,1.3s1.7,0.5,2.7,0.5
		c0.8,0,1.6-0.1,2.3-0.4c0.7-0.3,1.3-0.6,1.8-1.1s0.9-1,1.1-1.7c0.3-0.6,0.4-1.3,0.4-2c0-1.5-0.6-2.8-1.7-3.9L25.3,27l0.6-0.4
		C26.7,26.1,27.3,25.5,27.8,24.7z M24.1,25.6L24.1,25.6l-0.3,0.3l-0.3-0.2c-0.5-0.3-1-0.6-1.5-1s-0.9-0.6-1.2-0.8
		c-1-0.7-1.7-1.2-2.2-1.6s-0.9-0.8-1.2-1.2c-0.3-0.5-0.5-1-0.5-1.6c0-1,0.6-2,1.9-3l0.3-0.2l0.3,0.2c0.2,0.1,0.4,0.2,0.7,0.5l1.4,1
		c0.8,0.5,1.4,1,2,1.3c0.5,0.4,1,0.7,1.3,1c0.4,0.3,0.7,0.7,0.9,1.1c0.2,0.4,0.4,0.9,0.4,1.4C25.9,23.6,25.3,24.5,24.1,25.6z"/>
</g>
</svg>
