<?xml version="1.0" encoding="UTF-8"?> <!-- Generator: Adobe Illustrator 23.1.1, SVG Export Plug-In . SVG Version: 6.00 Build 0) --> <svg xmlns="http://www.w3.org/2000/svg" xmlns:xlink="http://www.w3.org/1999/xlink" id="Ebene_1_Kopie_2_Kopie" x="0px" y="0px" width="43px" height="43px" viewBox="0 0 43 43" style="enable-background:new 0 0 43 43;" xml:space="preserve"> <style type="text/css"> .st0{fill:#357BAF;} .st1{fill:none;stroke:#FFFFFF;stroke-width:0.7343;stroke-linecap:round;stroke-linejoin:round;stroke-miterlimit:10;} .st2{fill:#FFFFFF;} </style> <g> <path class="st0" d="M37.8,42.5H5.2c-2.6,0-4.7-2.1-4.7-4.7V5.2c0-2.6,2.1-4.7,4.7-4.7h32.6c2.6,0,4.7,2.1,4.7,4.7v32.6 C42.5,40.4,40.4,42.5,37.8,42.5z"></path> <line class="st1" x1="14.3" y1="19" x2="28.8" y2="19"></line> <g> <path class="st2" d="M35.3,23.4v-0.1L29.6,9.2c-0.1-0.3-0.4-0.5-0.7-0.5H14.1c-0.3,0-0.6,0.2-0.7,0.5l-5.7,14v0.1l0,0v7.1 c0,0.5,0.2,1.1,0.6,1.4c0.4,0.4,0.9,0.6,1.4,0.6h23.6c1.1,0,2-0.9,2-2L35.3,23.4L35.3,23.4z M24.4,22.8c0,0.1,0,0.2,0,0.2 c0,1.6-1.3,2.9-2.9,2.9s-2.9-1.3-2.9-2.9c0-0.1,0-0.2,0-0.2H9.5l5.1-12.6h13.8l5.1,12.6H24.4z"></path> <rect x="12.3" y="18.4" class="st2" width="18.5" height="3.2"></rect> <rect x="13.7" y="14.4" class="st2" width="15.6" height="2.8"></rect> <rect x="15.1" y="11.3" class="st2" width="12.8" height="2.3"></rect> </g> </g> </svg> 