<?xml version="1.0" encoding="utf-8"?>
<!-- Generator: Adobe Illustrator 23.1.1, SVG Export Plug-In . SVG Version: 6.00 Build 0)  -->
<svg version="1.1" id="Ebene_1" xmlns="http://www.w3.org/2000/svg" xmlns:xlink="http://www.w3.org/1999/xlink" x="0px" y="0px"
	 width="43px" height="43px" viewBox="0 0 43 43" style="enable-background:new 0 0 43 43;" xml:space="preserve">
<style type="text/css">
	.st0{fill:#5FB437;}
	.st1{fill:#FFFFFF;}
</style>
<g id="App">
	<path class="st0" d="M38.2,43H4.8C2.2,43,0,40.8,0,38.2V4.8C0,2.2,2.2,0,4.8,0h33.4C40.8,0,43,2.2,43,4.8v33.4
		C43,40.8,40.8,43,38.2,43z"/>
	<path class="st1" d="M30.8,4.5c-0.4-0.4-1-0.6-1.5-0.6H13.8c-1.2,0-2.1,1-2.1,2.2v30.6c0,0.6,0.2,1.1,0.6,1.6
		c0.4,0.4,1,0.6,1.5,0.6h15.5c1.2,0,2.1-1,2.1-2.2V6.1C31.4,5.5,31.2,4.9,30.8,4.5z M23.1,35.4c-0.1,0.2-0.2,0.4-0.4,0.6
		c-0.2,0.2-0.3,0.3-0.6,0.4c-0.2,0.1-0.4,0.1-0.7,0.1c-0.2,0-0.5,0-0.7-0.1s-0.4-0.2-0.6-0.4s-0.3-0.3-0.4-0.6
		c-0.1-0.2-0.1-0.4-0.1-0.7s0-0.5,0.1-0.7s0.2-0.4,0.4-0.6c0.2-0.2,0.3-0.3,0.6-0.4c0.2-0.1,0.4-0.1,0.7-0.1c0.2,0,0.5,0,0.7,0.1
		s0.4,0.2,0.6,0.4s0.3,0.4,0.4,0.6c0.1,0.2,0.1,0.4,0.1,0.7S23.2,35.2,23.1,35.4z M28.8,30.5H14.2V7.1h14.6V30.5z"/>
</g>
</svg>
