<?xml version="1.0" encoding="utf-8"?>
<!-- Generator: Adobe Illustrator 23.1.1, SVG Export Plug-In . SVG Version: 6.00 Build 0)  -->
<svg version="1.1" id="Ebene_1" xmlns="http://www.w3.org/2000/svg" xmlns:xlink="http://www.w3.org/1999/xlink" x="0px" y="0px"
	 width="43px" height="43px" viewBox="0 0 43 43" style="enable-background:new 0 0 43 43;" xml:space="preserve">
<style type="text/css">
	.st0{fill:#61B23A;}
	.st1{fill:#FFFFFF;}
</style>
<g id="Sammy">
	<g>
		<path class="st0" d="M38.2,43H4.8C2.2,43,0,40.8,0,38.2V4.8C0,2.2,2.2,0,4.8,0h33.4C40.8,0,43,2.2,43,4.8v33.4
			C43,40.8,40.8,43,38.2,43z"/>
		<path class="st1" d="M29.7,7.7c-0.8-0.5-2.2-0.9-3.3-1c-1.7-0.1-2.7,0.4-3.5,2c-0.5,1.1-1,2.6-1.3,4.1c-0.8-0.1-1.6-0.2-2.4-0.3
			c-3.3-0.1-4.9,0.9-6.2,3.9c-1,2.4-2.3,6.9-2.7,11.5c-0.3,3.9,1.7,5.2,3.8,6.2c1.6,0.8,4.8,1.5,6.8,1.6c0.2,0,0.4,0,0.6,0
			c2.3,0,4.1-0.5,5.5-3.9c1.5-3.6,2.4-7.5,2.7-11.5c0.1-1.2,0.1-3.7,0.1-3.7c0.8-1.7,1.3-3.5,1.6-5.4C31.7,9.8,31.5,8.8,29.7,7.7z
			 M25,9.7C25.3,9,25.5,8.9,26.3,9s1.9,0.4,2.3,0.7c0.9,0.5,0.9,0.6,0.8,1.4c-0.2,1.5-0.6,3-1.2,4.4c-1.1-0.8-4.3-2.2-4.4-2.2
			C24.1,11.9,24.5,10.6,25,9.7z M27.7,20.2c-0.2,3.8-1.1,7.4-2.5,10.8c-1.1,2.6-2.1,2.6-4.1,2.5l0,0c-1.7,0-4.5-0.7-5.9-1.4
			c-1.9-0.9-2.8-1.6-2.6-4.1c0.1-0.8,0.1-1.6,0.3-2.4l4.4,0.9h0.1c0.3,0,0.5-0.2,0.5-0.4c0.1-0.3-0.1-0.6-0.4-0.6L13,24.7
			c0.3-1.6,0.6-3.1,1-4.4l4.6,0.9h0.1c0.3,0,0.5-0.2,0.5-0.4c0.1-0.3-0.1-0.6-0.4-0.6l-4.5-0.9c0.2-0.7,0.5-1.4,0.7-1.9
			c0.8-1.9,1.5-2.6,3.7-2.6c0.1,0,0.3,0,0.4,0c1.9,0.1,4.6,0.7,5.9,1.4C27.8,17.5,27.8,18.2,27.7,20.2z"/>
	</g>
</g>
</svg>
