<?xml version="1.0" encoding="UTF-8"?> <svg xmlns="http://www.w3.org/2000/svg" xmlns:xlink="http://www.w3.org/1999/xlink" version="1.1" x="0px" y="0px" viewBox="0 0 43 43" style="enable-background:new 0 0 43 43;" xml:space="preserve"> <style type="text/css"> .st0{fill:#61B23B;} .st1{fill:none;} .st2{fill:#FFFFFF;} </style> <g id="Ebene_1"> <g> <path class="st0" d="M38.2,43H4.8C2.2,43,0,40.8,0,38.2V4.8C0,2.2,2.2,0,4.8,0h33.4C40.8,0,43,2.2,43,4.8v33.4 C43,40.8,40.8,43,38.2,43"></path> </g> </g> <g id="Ebene_2"> <path class="st1" d="M24.8,36.5c0.9-0.2,1.7-0.4,2.5-0.8c0.6-0.2,0.8-0.3,1.1-0.5c2.9-1.5,5.3-3.9,6.8-6.8 c-2.7,0.4-7.4,2.6-11.1,5.9C24.4,35,24.6,35.8,24.8,36.5z"></path> <path class="st1" d="M35.8,27.2c0.3-0.6,0.5-1.3,0.7-2c-3.8-0.5-8.4,0.7-11.9,3.1c-1.3,0.9-2,1.5-2.6,2.1c0.7,0.9,1.3,1.9,1.8,2.9 C27.6,29.4,32.6,27.5,35.8,27.2z"></path> <path class="st1" d="M7.8,28.4c2.2,4.4,6.5,7.5,11.5,8.3c-0.7-1.4-1.7-2.8-2.8-3.9C14.1,30.4,11.1,28.9,7.8,28.4z"></path> <path class="st1" d="M6.6,25.2c0.2,0.7,0.4,1.4,0.7,2c3.8,0.4,7.3,2.1,10,4.7c1.4,1.4,2.5,3,3.4,4.9c0.3,0,0.6,0,0.9,0 c0.8,0,1.5,0,2.2-0.2c-0.7-2.7-2.1-5.2-4-7.1C16.2,26.1,11.4,24.5,6.6,25.2z"></path> <path class="st1" d="M21.7,30.6c0,0,0.1-0.1,0.2-0.2c-0.2-0.3-0.4-0.5-0.7-0.8c-0.1,0-0.1,0.1-0.2,0.1C21.3,30,21.7,30.6,21.7,30.6 z"></path> <path class="st1" d="M36.9,21.5C36.9,13,30,6.1,21.5,6.1S6.1,13,6.1,21.5c0,0.1,0,0.5,0.1,1.5c0,0.4,0.1,0.8,0.1,1.1 c3.9-0.6,7.9,0.3,11.2,2.3c0.7,0.5,1.2,0.7,1.8,1.3c0.4,0.3,0.7,0.6,1.1,1c0.3,0.3,0.5,0.6,0.8,0.8c1.6-1.4,3.6-2.8,3.6-2.8 c3.4-2.4,7.7-3.3,11.8-2.7c0.1-0.4,0.1-0.7,0.1-1.1C36.9,21.8,36.9,21.6,36.9,21.5z"></path> <g> <path class="st1" d="M7.8,28.4c2.2,4.4,6.5,7.5,11.5,8.3c-0.7-1.4-1.7-2.8-2.8-3.9C14.1,30.4,11.1,28.9,7.8,28.4z"></path> <path class="st1" d="M6.6,25.2c0.2,0.7,0.4,1.4,0.7,2c3.8,0.4,7.3,2.1,10,4.7c1.4,1.4,2.5,3,3.4,4.9c0.3,0,0.6,0,0.9,0 c0.8,0,1.5,0,2.2-0.2c-0.7-2.7-2.1-5.2-4-7.1C16.2,26.1,11.4,24.5,6.6,25.2z"></path> <path class="st1" d="M21.2,29.6c0.3-0.3,0.7-0.6,1.1-0.9v-7c1.4-0.1,4.5-0.5,6.5-2.5c2.7-2.7,2.5-7.2,2.5-7.4 c0-0.4-0.4-0.7-0.8-0.8c0,0-0.1,0-0.3,0c-1.1,0-4.7,0.2-7,2.5c-1.4,1.4-2,3.2-2.3,4.7c-0.3-0.5-0.7-1-1.1-1.4 c-2.3-2.3-6-2.5-7-2.5c-0.2,0-0.3,0-0.3,0c-0.4,0-0.7,0.4-0.8,0.8c0,0.2-0.2,4.7,2.5,7.4c2,2,5.1,2.4,6.5,2.5V29 C20.9,29.2,21.1,29.4,21.2,29.6z"></path> <path class="st1" d="M24.8,36.5c0.9-0.2,1.7-0.4,2.5-0.8c0.6-0.2,0.8-0.3,1.1-0.5c2.9-1.5,5.3-3.9,6.8-6.8 c-2.7,0.4-7.4,2.6-11.1,5.9C24.4,35,24.6,35.8,24.8,36.5z"></path> <path class="st1" d="M24.6,28.3c-1.3,0.9-2,1.5-2.6,2.1c0.7,0.9,1.3,1.9,1.8,2.9c4-3.9,9-5.8,12.1-6.1c0.3-0.6,0.5-1.3,0.7-2 C32.6,24.7,28,26,24.6,28.3z"></path> <path class="st2" d="M33.2,9.8C30,6.7,25.9,5,21.5,5S13,6.7,9.8,9.8C6.7,13,5,17.1,5,21.5S6.7,30,9.8,33.2S17.1,38,21.5,38 c4.4,0,8.5-1.7,11.7-4.8C36.3,30,38,25.9,38,21.5C38,17.1,36.3,13,33.2,9.8z M14.2,22.4c-2.7-2.7-2.5-7.2-2.5-7.4 c0-0.4,0.3-0.7,0.8-0.8c0,0,0.1,0,0.3,0c1.1,0,4.7,0.2,7,2.5c0.4,0.4,0.8,0.9,1.1,1.4c0.3-1.5,0.9-3.3,2.3-4.7 c2.3-2.3,6-2.5,7-2.5c0.2,0,0.3,0,0.3,0c0.4,0,0.7,0.3,0.8,0.8c0,0.2,0.2,4.7-2.5,7.4c-2,2-5.1,2.4-6.5,2.5v7 c-0.4,0.3-0.7,0.6-1.1,0.9c-0.2-0.2-0.4-0.4-0.6-0.6v-4.1C19.3,24.8,16.2,24.5,14.2,22.4z M7.8,28.4c3.3,0.5,6.3,2,8.6,4.3 c1.2,1.2,2.1,2.5,2.8,3.9C14.3,36,10,32.8,7.8,28.4z M21.5,36.9c-0.3,0-0.6,0-0.9,0c-0.8-1.8-1.9-3.4-3.4-4.9 c-2.7-2.7-6.2-4.4-10-4.7c-0.3-0.6-0.5-1.3-0.7-2c4.8-0.7,9.6,0.9,13.1,4.3c2,2,3.4,4.4,4,7.1C23,36.8,22.2,36.9,21.5,36.9z M28.4,35.2c-0.3,0.2-0.5,0.3-1.1,0.5c-0.8,0.3-1.6,0.6-2.5,0.8c-0.2-0.7-0.4-1.5-0.7-2.2c3.7-3.3,8.4-5.5,11.1-5.9 C33.7,31.4,31.3,33.7,28.4,35.2z M35.8,27.2c-3.1,0.3-8.1,2.1-12.1,6.1c-0.5-1-1.1-2-1.8-2.9c0.6-0.5,1.3-1.2,2.6-2.1 c3.4-2.4,8-3.7,11.9-3.1C36.2,25.9,36,26.6,35.8,27.2z"></path> </g> </g> </svg> 