<?xml version="1.0" encoding="utf-8"?>
<!-- Generator: Adobe Illustrator 23.1.1, SVG Export Plug-In . SVG Version: 6.00 Build 0)  -->
<svg version="1.1" id="Ebene_1" xmlns="http://www.w3.org/2000/svg" xmlns:xlink="http://www.w3.org/1999/xlink" x="0px" y="0px"
	 width="43px" height="43px" viewBox="0 0 43 43" style="enable-background:new 0 0 43 43;" xml:space="preserve">
<style type="text/css">
	.st0{fill:#795CA3;}
	.st1{fill:#FFFFFF;}
</style>
<g id="Fremdfirmen">
	<path class="st0" d="M38.2,43H4.8C2.2,43,0,40.8,0,38.2V4.8C0,2.2,2.2,0,4.8,0h33.4C40.8,0,43,2.2,43,4.8v33.4
		C43,40.8,40.8,43,38.2,43z"/>
	<g>
		<path class="st1" d="M14.8,8.5H8.7c-1.1,0-2,0.9-2,2v23.6c0,1.1,0.9,2,2,2h6.1c1.1,0,2-0.9,2-2V21.3v-7.5v-3.3
			C16.8,9.4,15.9,8.5,14.8,8.5z M11.7,21.8c-1.7,0-3.1-1.4-3.1-3.1s1.4-3.1,3.1-3.1s3.1,1.4,3.1,3.1C14.9,20.3,13.4,21.8,11.7,21.8z
			"/>
		<path class="st1" d="M37.5,7.6c-0.2-0.7-0.6-1.2-1.3-1c-0.3,0-1.3,0.4-1.3,0.4l0,0v6.3l2.7-1c0.8-0.4,0.8-0.7,0.7-1.4
			C38.1,10,37.8,8.5,37.5,7.6z"/>
		<polygon class="st1" points="29.6,9 29.6,15.3 32.7,14.1 32.7,7.8 		"/>
		<polygon class="st1" points="24.3,11 24.3,17.3 27.4,16.2 27.4,9.8 		"/>
		<polygon class="st1" points="19,13 19,19.4 22.1,18.2 22.1,11.9 		"/>
	</g>
</g>
</svg>
