<?xml version="1.0" encoding="utf-8"?>
<!-- Generator: Adobe Illustrator 23.1.1, SVG Export Plug-In . SVG Version: 6.00 Build 0)  -->
<svg version="1.1" id="Ebene_1" xmlns="http://www.w3.org/2000/svg" xmlns:xlink="http://www.w3.org/1999/xlink" x="0px" y="0px"
	 width="43px" height="43px" viewBox="0 0 43 43" style="enable-background:new 0 0 43 43;" xml:space="preserve">
<style type="text/css">
	.st0{fill:#536CB1;}
	.st1{fill:#FFFFFF;}
</style>
<g id="Gefährdungsb">
	<path class="st0" d="M38.2,43H4.8C2.2,43,0,40.8,0,38.2V4.8C0,2.2,2.2,0,4.8,0h33.4C40.8,0,43,2.2,43,4.8v33.4
		C43,40.8,40.8,43,38.2,43z"/>
	<path class="st1" d="M40.4,19.9L23,2.5c-0.4-0.4-0.9-0.6-1.5-0.6S20.4,2.1,20,2.5L2.6,19.9c-0.8,0.8-0.8,2.1,0,2.9L20,40.2
		c0.4,0.4,0.9,0.6,1.5,0.6s1.1-0.2,1.5-0.6l17.4-17.4C41.2,22,41.2,20.7,40.4,19.9z M21.5,38L4.9,21.3L21.5,4.7l16.6,16.6L21.5,38z"
		/>
	<g>
		<path class="st1" d="M20.7,26.1c-0.2-1.3-0.3-2.5-0.4-3.4S20,21,19.9,20.3c-0.1-0.7-0.2-1.3-0.4-1.8c-0.1-0.5-0.2-1-0.3-1.4
			c-0.1-0.4-0.1-0.9-0.2-1.3c0-0.5-0.1-1-0.1-1.6c0-0.5,0.1-1,0.2-1.5c0.1-0.4,0.3-0.8,0.6-1.1c0.2-0.3,0.5-0.5,0.8-0.7
			s0.6-0.2,0.9-0.2s0.6,0.1,0.9,0.2c0.3,0.2,0.6,0.4,0.8,0.7c0.2,0.3,0.4,0.7,0.6,1.1c0.1,0.4,0.2,0.9,0.2,1.5s0,1.1-0.1,1.6
			c0,0.5-0.1,0.9-0.2,1.3s-0.2,0.9-0.3,1.4c-0.1,0.5-0.2,1.1-0.3,1.8c-0.1,0.7-0.3,1.5-0.4,2.4s-0.3,2.1-0.4,3.4H20.7z M19.4,29.8
			c0,0.3,0.1,0.6,0.2,0.8c0.1,0.3,0.3,0.5,0.4,0.7c0.2,0.2,0.4,0.3,0.7,0.4c0.3,0.1,0.5,0.2,0.8,0.2s0.6-0.1,0.8-0.2
			c0.3-0.1,0.5-0.3,0.7-0.4c0.2-0.2,0.3-0.4,0.4-0.7c0.1-0.3,0.2-0.5,0.2-0.8s-0.1-0.6-0.2-0.8c-0.1-0.3-0.3-0.5-0.4-0.7
			c-0.2-0.2-0.4-0.3-0.7-0.5c-0.3-0.1-0.5-0.2-0.8-0.2s-0.6,0.1-0.8,0.2c-0.3,0.1-0.5,0.3-0.7,0.5s-0.3,0.4-0.4,0.7
			C19.5,29.3,19.4,29.6,19.4,29.8z"/>
	</g>
</g>
</svg>
