<?xml version="1.0" encoding="utf-8"?>
<!-- Generator: Adobe Illustrator 23.1.1, SVG Export Plug-In . SVG Version: 6.00 Build 0)  -->
<svg version="1.1" id="Ebene_1" xmlns="http://www.w3.org/2000/svg" xmlns:xlink="http://www.w3.org/1999/xlink" x="0px" y="0px"
	 width="43px" height="43px" viewBox="0 0 43 43" style="enable-background:new 0 0 43 43;" xml:space="preserve">
<style type="text/css">
	.st0{fill:#EE7753;}
	.st1{fill:#FFFFFF;}
</style>
<g id="GefStoff">
	<path class="st0" d="M38.2,43H4.8C2.2,43,0,40.8,0,38.2V4.8C0,2.2,2.2,0,4.8,0h33.4C40.8,0,43,2.2,43,4.8v33.4
		C43,40.8,40.8,43,38.2,43z"/>
	<g>
		<path class="st1" d="M19.9,18.5c-1.4-1.7-4-1.9-4-1.9s2.4,4.1-0.6,7.4c-2.4,2.6,3.9,6.7,5.8,6.5c-1.2-0.8-2.9-2.8-1.9-3.5
			c3.2-2.2,0.9-6.3,0.9-6.3s4,2.4,4.1,4.8c0.1,3.6-1.6,4.1-2,5c2.3-0.7,6.2-0.5,6-12.1c0-0.2-1.8,2.4-1.9,1.6c-0.5-6.8-7-7.9-7-7.9
			S21.2,15.3,19.9,18.5z"/>
		<path class="st1" d="M40.4,19.9L23,2.5c-0.4-0.4-0.9-0.6-1.5-0.6S20.4,2.1,20,2.5L2.6,19.9c-0.8,0.8-0.8,2.1,0,2.9L20,40.2
			c0.4,0.4,0.9,0.6,1.5,0.6s1.1-0.2,1.5-0.6l17.4-17.4C41.2,22,41.2,20.7,40.4,19.9z M21.5,38L4.9,21.3L21.5,4.7l16.6,16.6L21.5,38z
			"/>
	</g>
</g>
</svg>
