<?xml version="1.0" encoding="utf-8"?>
<!-- Generator: Adobe Illustrator 23.1.1, SVG Export Plug-In . SVG Version: 6.00 Build 0)  -->
<svg version="1.1" id="Ebene_1" xmlns="http://www.w3.org/2000/svg" xmlns:xlink="http://www.w3.org/1999/xlink" x="0px" y="0px"
	 width="43px" height="43px" viewBox="0 0 43 43" style="enable-background:new 0 0 43 43;" xml:space="preserve">
<style type="text/css">
	.st0{fill:#ED779C;}
	.st1{fill:#FFFFFF;}
</style>
<g id="ArbMed">
	<path class="st0" d="M38.2,43H4.8C2.2,43,0,40.8,0,38.2V4.8C0,2.2,2.2,0,4.8,0h33.4C40.8,0,43,2.2,43,4.8v33.4
		C43,40.8,40.8,43,38.2,43z"/>
	<g>
		<path class="st1" d="M37.1,15.3L37.1,15.3c-0.2-4.5-3.9-8.1-8.4-8.1c-1.6,0-3.1,0.4-4.5,1.3c-0.7,0.4-1.8,1.7-2.7,2.7
			c-0.9-1-2-2.3-2.7-2.7c-1.3-0.8-2.9-1.3-4.4-1.3C9.8,7.2,6,11,6,15.7l0,0h2.5l0,0c0-3.2,2.6-5.9,5.9-5.9c1.1,0,2.2,0.3,3.1,0.9
			c0.5,0.3,2,2,3.1,3.3l1,1.2l1-1.2c1.1-1.4,2.6-3,3-3.3c0.9-0.6,2-0.9,3.1-0.9c3.2,0,5.8,2.5,5.9,5.7v0.1v0.1
			c0.4,3.8-7.3,11.8-12.9,16.5c-0.6-0.5-1.5-1.3-2.6-2.3c-0.4-0.4-1-0.5-1.5-0.2c-0.8,0.5-0.9,1.5-0.2,2c2,1.8,3.4,3,3.5,3.1
			l0.8,0.7l0.8-0.7C24.2,33.5,38,22,37.1,15.3z"/>
		<path class="st1" d="M20.3,27.9L20.3,27.9c0.2,0,0.3-0.1,0.4-0.3l2.1-6H27c0.2,0,0.4-0.2,0.4-0.4c0-0.2-0.2-0.4-0.4-0.4h-4.5
			c-0.2,0-0.3,0.1-0.4,0.3l-1.9,5.2l-3.8-10.7c-0.1-0.2-0.2-0.3-0.4-0.3c-0.2,0-0.3,0.1-0.4,0.3l-3.9,9.2L10,21
			c-0.1-0.1-0.2-0.2-0.4-0.2H6v0.8h3.4l2.1,4.4c0.1,0.1,0.2,0.2,0.4,0.2s0.3-0.1,0.4-0.3l3.8-9.1l3.8,10.8
			C20,27.8,20.2,27.9,20.3,27.9z"/>
	</g>
</g>
</svg>
