<?xml version="1.0" encoding="utf-8"?>
<!-- Generator: Adobe Illustrator 23.1.1, SVG Export Plug-In . SVG Version: 6.00 Build 0)  -->
<svg version="1.1" id="Ebene_1" xmlns="http://www.w3.org/2000/svg" xmlns:xlink="http://www.w3.org/1999/xlink" x="0px" y="0px"
	 width="43px" height="43px" viewBox="0 0 43 43" style="enable-background:new 0 0 43 43;" xml:space="preserve">
<style type="text/css">
	.st0{fill:#F9D369;}
	.st1{fill:#FFFFFF;}
</style>
<g id="Idee">
	<path class="st0" d="M38.2,43H4.8C2.2,43,0,40.8,0,38.2V4.8C0,2.2,2.2,0,4.8,0h33.4C40.8,0,43,2.2,43,4.8v33.4
		C43,40.8,40.8,43,38.2,43z"/>
	<g>
		<path class="st1" d="M36.6,16.7h-3.5c-0.2,0-0.4,0.2-0.4,0.4s0.2,0.4,0.4,0.4h3.5c0.2,0,0.4-0.2,0.4-0.4S36.9,16.7,36.6,16.7z"/>
		<path class="st1" d="M9.8,16.7H6.4c-0.2,0-0.4,0.2-0.4,0.4s0.2,0.4,0.4,0.4h3.5c0.2,0,0.4-0.2,0.4-0.4S10.1,16.7,9.8,16.7z"/>
		<g>
			<path class="st1" d="M32.8,6.1c-0.1,0-0.2,0-0.3,0.1l-2.4,2c-0.2,0.2-0.2,0.4-0.1,0.6C30.1,8.9,30.2,9,30.3,9
				c0.1,0,0.2,0,0.3-0.1l2.4-2c0.2-0.2,0.2-0.4,0.1-0.6C33.1,6.2,32.9,6.1,32.8,6.1z"/>
		</g>
		<g>
			<path class="st1" d="M13.1,24.8C13.1,24.8,13,24.8,13.1,24.8c-0.2,0-0.3,0-0.3,0.1l-2.9,2.4c-0.1,0.1-0.1,0.2-0.2,0.3
				c0,0.1,0,0.2,0.1,0.3c0.1,0.1,0.2,0.2,0.3,0.2s0.2,0,0.3-0.1l2.9-2.4c0.1-0.1,0.1-0.2,0.2-0.3c0-0.1,0-0.2-0.1-0.3
				C13.3,24.9,13.2,24.8,13.1,24.8z"/>
		</g>
		<g>
			<path class="st1" d="M32.8,28.1c0.1,0,0.3-0.1,0.3-0.2c0.1-0.1,0.1-0.2,0.1-0.3c0-0.1-0.1-0.2-0.2-0.3l-2.9-2.4
				c-0.1-0.1-0.2-0.1-0.3-0.1c-0.1,0-0.3,0.1-0.3,0.2c-0.1,0.1-0.1,0.2-0.1,0.3c0,0.1,0.1,0.2,0.2,0.3l2.9,2.4
				C32.6,28.1,32.7,28.1,32.8,28.1z"/>
		</g>
		<g>
			<path class="st1" d="M12.6,9.1c0.1,0,0.3-0.1,0.3-0.2c0.2-0.2,0.1-0.5-0.1-0.6l-2.4-2c-0.1-0.1-0.2-0.1-0.3-0.1S9.8,6.3,9.8,6.4
				C9.7,6.5,9.7,6.8,9.9,6.9l2.4,2C12.4,9.1,12.6,9.1,12.6,9.1z"/>
		</g>
		<path class="st1" d="M21.5,7.3c-5.2,0-9.6,4.2-9.4,9.3c0.2,5.2,3.5,7,4.4,13.8c0,0.1,0,0.1,0,0.2c0,0,0,0,0,0.1
			c0.1,0.4,0.4,0.7,0.8,0.8c0.1,0,0.2,0,0.3,0c0.1,0,0.2,0,0.3,0l8.4-2.3c0.2,0,0.3-0.1,0.5-0.3c0.1-0.1,0.2-0.3,0.3-0.4
			c0-0.1,0-0.2,0.1-0.3c1.3-5.6,3.7-6.8,3.8-11.6C31,11.5,26.7,7.3,21.5,7.3z M16.3,21.8c-0.9-1.9-1.6-3.2-1.7-5.3
			c-0.1-1.7,0.6-3.3,1.8-4.5c1.3-1.4,3.2-2.1,5.1-2.1s3.7,0.8,5,2.1c1.2,1.3,1.9,2.9,1.9,4.6c0,2.1-0.6,3.2-1.5,4.9
			c-0.7,1.3-1.4,2.8-2,4.9h-6.8C17.6,24.5,16.9,23.1,16.3,21.8z"/>
		<path class="st1" d="M17.9,34.6c0.2-0.1,0.3-0.1,0.3-0.1l7.6-2c0,0,0.4-0.1,0.5-0.2c0.1-0.1,0.2-0.3,0.2-0.6
			c0-0.2,0.1-0.5,0.1-0.7c0-0.3,0-0.5-0.2-0.6s-0.5-0.1-0.5-0.1l-8,2.1c0,0-0.3,0.1-0.6,0.2c-0.4,0.1-0.4,0.5-0.2,1.2
			C17.2,34.5,17.4,34.7,17.9,34.6z"/>
		<g>
			<path class="st1" d="M25.7,33.6c-0.1,0-0.5,0.1-0.5,0.1l-6.5,1.7c0,0-0.7,0.1-0.8,0.3c-0.1,0.2-0.1,0.7,0.2,0.9
				c0.3,0.2,0.6,0.2,1,0.2h5c1.3,0,1.9-0.4,2.2-1.7c0-0.1,0.1-0.7,0.2-0.8C26.3,34,26.1,33.6,25.7,33.6z"/>
		</g>
	</g>
</g>
</svg>
