<?xml version="1.0" encoding="utf-8"?>
<!-- Generator: Adobe Illustrator 23.1.1, SVG Export Plug-In . SVG Version: 6.00 Build 0)  -->
<svg version="1.1" id="Ebene_1" xmlns="http://www.w3.org/2000/svg" xmlns:xlink="http://www.w3.org/1999/xlink" x="0px" y="0px"
	 width="43px" height="43px" viewBox="0 0 43 43" style="enable-background:new 0 0 43 43;" xml:space="preserve">
<style type="text/css">
	.st0{fill:#29AB70;}
	.st1{fill:none;stroke:#FFFFFF;stroke-linecap:round;stroke-miterlimit:10;}
	.st2{fill:#FFFFFF;}
</style>
<g id="Instandhalt">
	<path class="st0" d="M38.2,43H4.8C2.2,43,0,40.8,0,38.2V4.8C0,2.2,2.2,0,4.8,0h33.4C40.8,0,43,2.2,43,4.8v33.4
		C43,40.8,40.8,43,38.2,43z"/>
	<line class="st1" x1="16" y1="9.4" x2="27" y2="9.4"/>
	<path class="st2" d="M31.9,37.9c1.1,0,2.1-0.9,2.1-2.1V7c0-0.5-0.2-1.1-0.6-1.5c-0.4-0.4-0.9-0.6-1.5-0.6H11C9.9,4.9,9,5.8,9,7
		v28.9c0,0.5,0.2,1.1,0.6,1.5s0.9,0.6,1.5,0.6L31.9,37.9z M11.5,34.9v-27h20v27H11.5z"/>
	<path class="st2" d="M26.9,14.2l-5,12.6c-0.2,0.4-1,0.4-1.2-0.1l-3-5.9c-0.1-0.3-0.5-0.4-0.7-0.2l-1.2,0.7
		c-0.3,0.1-0.4,0.5-0.2,0.7c0,0,0.4,0.8,0.5,1.1l3.8,7.6c0.1,0.2,0.3,0.3,0.5,0.3h0.4c0.2,0,0.4-0.1,0.5-0.3l6.4-16
		c0.1-0.4,0.1-0.8-0.3-0.8C27.3,13.9,27,14,26.9,14.2z"/>
</g>
</svg>
