<?xml version="1.0" encoding="UTF-8"?> <svg xmlns="http://www.w3.org/2000/svg" xmlns:xlink="http://www.w3.org/1999/xlink" version="1.1" id="Ebene_1" x="0px" y="0px" viewBox="0 0 45 45" style="enable-background:new 0 0 45 45;" xml:space="preserve"> <style type="text/css"> .st0{fill:#0051C5;} .st1{fill:#FFFFFF;} .st2{display:none;} .st3{display:inline;} .st4{fill:#6ABEA9;} </style> <g id="_x32_"> <g> <path class="st0" d="M40,45H5c-2.8,0-5-2.2-5-5V5c0-2.8,2.2-5,5-5h35c2.8,0,5,2.2,5,5v35C45,42.8,42.8,45,40,45z"></path> </g> <g> <path class="st1" d="M17.3,7.5C11.2,9.3,6.9,14.8,6.7,21.2h11.5L17.3,7.5z"></path> <path class="st1" d="M24.7,21.1l1-15.6c0-0.4-0.3-0.8-0.8-0.8H20c-0.4,0-0.8,0.4-0.8,0.8l1,15.6H24.7z"></path> <path class="st1" d="M27.7,7.5l-0.9,13.7h11.5C38.1,14.8,33.8,9.3,27.7,7.5z"></path> <path class="st1" d="M39.1,23.3H6c-0.6,0-1,0.5-1,1v2.3c0,0.6,0.4,1,0.9,1H8v8.8c0,1.5,1.2,2.7,2.7,2.7h5.8c0.7,0,1.4-0.3,1.9-0.8 l3.6-3.6c0.2-0.2,0.4-0.3,0.6-0.3l0,0c0.2,0,0.4,0.1,0.6,0.3l3.6,3.6c0.5,0.5,1.2,0.8,1.9,0.8h5.7c1.5,0,2.7-1.2,2.7-2.7v-8.8h2.1 c0.5,0,0.9-0.4,0.9-0.9v-2.4C40,23.8,39.6,23.3,39.1,23.3z M35.7,36.5c0,0.7-0.6,1.3-1.3,1.3h-5.7c-0.3,0-0.7-0.1-0.9-0.4 l-3.6-3.6c-0.4-0.4-1-0.7-1.6-0.7s-1.2,0.2-1.6,0.7l-3.6,3.6c-0.2,0.2-0.6,0.4-0.9,0.4h-5.8c-0.7,0-1.3-0.6-1.3-1.3V28 c0-0.5,0.4-0.8,0.8-0.8h24.7c0.5,0,0.8,0.4,0.8,0.8V36.5z"></path> <path class="st1" d="M11,36.1h5.2l3.4-3.5c0.7-0.7,1.7-1.2,2.8-1.2c1.1,0,2.1,0.4,2.8,1.2l3.5,3.5H34v-6.8H11V36.1z"></path> </g> </g> <g id="Ebene_2_00000127741867384194584790000001762120037254480006_" class="st2"> <g id="ArbMed" class="st3"> <g> <path class="st4" d="M41,0H7C3.2,0,0,3.1,0,7v34c0,3.9,3.1,7,7,7h34c3.9,0,7-3.1,7-7V7C48,3.1,44.9,0,41,0z M45,40.3 c0,2.6-2.1,4.7-4.7,4.7H7.7C5.1,45,3,42.9,3,40.3V7.7C3,5.1,5.1,3,7.7,3h32.6C42.9,3,45,5.1,45,7.7V40.3z"></path> <g> <path class="st4" d="M41.7,18.1L41.7,18.1C41.5,13,37.3,9,32.1,9c-1.8,0-3.6,0.5-5.1,1.5c-0.8,0.5-2.1,1.9-3.1,3.1 c-1-1.1-2.3-2.6-3.1-3.1c-1.4-1-3.2-1.5-5-1.5c-5.1,0-9.3,4-9.5,9.1c0,0.3-0.1,0.6-0.1,0.9c0,0,1,0,1.1,0H10l0,0 c0-3.5,2.8-6.3,6.3-6.3c1.2,0,2.3,0.3,3.3,0.9c0.5,0.3,2.1,2.1,3.3,3.6l1.1,1.3l1.1-1.3c1.2-1.5,2.7-3.2,3.3-3.6 c1-0.6,2.2-1,3.4-1c3.4,0,6.2,2.7,6.3,6.1v0.1v0.1c0.5,4.1-7.9,12.7-13.8,17.7c-0.7-0.6-1.6-1.4-2.8-2.4c-0.4-0.4-1.2-0.4-1.9,0 c-0.8,0.6-0.9,2-0.2,2.6c2.3,2.1,3.9,3.4,4,3.5l0.9,0.7l0.9-0.7C26.9,38.9,42.7,25.8,41.7,18.1z"></path> </g> </g> <path class="st4" d="M14.7,30.3c-0.1,0.3-0.4,0.5-0.7,0.5s-0.6-0.2-0.7-0.4l-2.5-5.1h-4v-1.5h4.6c0.3,0,0.6,0.2,0.7,0.4l1.9,4 l4.4-10.5c0.1-0.3,0.4-0.4,0.7-0.5c0.3,0,0.6,0.2,0.7,0.5l4.3,12l2-5.5c0.1-0.3,0.4-0.5,0.7-0.5H32c0.4,0,0.8,0.3,0.8,0.8 s-0.3,0.8-0.8,0.8h-4.8l-2.5,7c-0.1,0.3-0.4,0.5-0.7,0.5s-0.6-0.2-0.7-0.5L19,20.1L14.7,30.3z"></path> </g> </g> </svg> 