<?xml version="1.0" encoding="UTF-8"?> <!-- Generator: Adobe Illustrator 25.4.1, SVG Export Plug-In . SVG Version: 6.00 Build 0) --> <svg xmlns="http://www.w3.org/2000/svg" xmlns:xlink="http://www.w3.org/1999/xlink" version="1.1" x="0px" y="0px" viewBox="0 0 45.4 45.4" style="enable-background:new 0 0 45.4 45.4;" xml:space="preserve"> <style type="text/css"> .st0{fill:#7F77B5;} .st1{fill:#FFFFFF;} </style> <g id="Ebene_5"> <g> <g> <path class="st0" d="M40.3,45.4H5.1c-2.8,0-5.1-2.3-5.1-5.1V5.1C0,2.3,2.3,0,5.1,0h35.2c2.8,0,5.1,2.3,5.1,5.1v35.2 C45.4,43.1,43.1,45.4,40.3,45.4"></path> <g> <path class="st1" d="M36.1,16.7c0.7,0.5,1.4,0.9,2.2,1.2l-1,1.9c-0.4-0.1-0.8-0.3-1.2-0.5c-0.1,0-0.7-0.4-1.8-1.2 c-0.9,0.4-1.9,0.6-3,0.6c-2.1,0-3.7-0.6-4.9-1.8c-1.2-1.2-1.8-3-1.8-5.2c0-2.2,0.6-4,1.8-5.2s2.8-1.9,4.8-1.9 c2,0,3.6,0.6,4.8,1.9c1.2,1.2,1.8,3,1.8,5.2c0,1.2-0.2,2.2-0.5,3.1C37,15.4,36.6,16.1,36.1,16.7z M33.9,15.2 c0.4-0.4,0.6-0.9,0.8-1.5c0.2-0.6,0.3-1.3,0.3-2c0-1.6-0.3-2.7-1-3.5C33.2,7.3,32.3,7,31.2,7c-1.1,0-2,0.4-2.7,1.2 c-0.7,0.8-1,2-1,3.5c0,1.6,0.3,2.8,1,3.6c0.7,0.8,1.6,1.2,2.6,1.2c0.4,0,0.8-0.1,1.1-0.2c-0.6-0.4-1.1-0.6-1.7-0.9l0.8-1.6 C32.2,14.1,33,14.6,33.9,15.2z"></path> </g> <g> <path class="st1" d="M31.9,40.6c3.3-0.2,6-2.9,6.2-6.2h-6.2V40.6z"></path> <path class="st1" d="M24.4,34.4c0.2,3.3,2.9,6,6.2,6.2v-6.2H24.4z"></path> <path class="st1" d="M38.1,33.1c-0.2-3.3-2.9-6-6.2-6.2v6.2H38.1z"></path> </g> </g> <path class="st1" d="M40.3,21.5H21.1V5c0-0.8-0.6-1.4-1.4-1.4c-0.8,0-1.4,0.6-1.4,1.4v16.4H5c-0.8,0-1.4,0.6-1.4,1.4 c0,0.8,0.6,1.4,1.4,1.4h13.3v16.1c0,0.8,0.6,1.4,1.4,1.4c0.8,0,1.4-0.6,1.4-1.4V24.2h19.2c0.8,0,1.4-0.6,1.4-1.4 C41.7,22.1,41.1,21.5,40.3,21.5z"></path> </g> <path class="st1" d="M14.1,34.8l-2-0.6c-0.1,0-0.1-0.1-0.2-0.1c-0.2-0.3-0.8-0.9-0.7-1.9c0.1-0.1,0.3-0.4,0.4-0.5 c0.4-0.5,0.6-0.9,0.6-1.8s-0.1-1.7-0.6-2.2c-0.4-0.5-1.1-0.8-1.8-0.8c0,0,0,0,0,0c0,0,0,0,0,0c-0.6,0-1.4,0.3-1.8,0.8 c-0.4,0.5-0.6,1.4-0.6,2.2s0.2,1.2,0.6,1.8c0.1,0.1,0.3,0.4,0.4,0.5c0.1,1-0.5,1.6-0.7,1.9c-0.1,0.1-0.1,0.1-0.2,0.1l-2,0.6 c-0.6,0.2-1,0.7-1,1.3v3.5c0,0.5,0.4,0.9,0.9,0.9h4.4h4.4c0.5,0,0.9-0.4,0.9-0.9v-3.5C15.1,35.5,14.7,35,14.1,34.8z"></path> </g> <g id="Ebene_2"> </g> </svg> 