<?xml version="1.0" encoding="UTF-8"?> <!-- Generator: Adobe Illustrator 23.1.1, SVG Export Plug-In . SVG Version: 6.00 Build 0) --> <svg xmlns="http://www.w3.org/2000/svg" xmlns:xlink="http://www.w3.org/1999/xlink" id="Ebene_4" x="0px" y="0px" width="43px" height="43px" viewBox="0 0 43 43" style="enable-background:new 0 0 43 43;" xml:space="preserve"> <style type="text/css"> .st0{fill:#60BAB6;} .st1{fill:#FFFFFF;} </style> <g> <path class="st0" d="M37.8,42.5H5.2c-2.6,0-4.7-2.1-4.7-4.7V5.2c0-2.6,2.1-4.7,4.7-4.7h32.6c2.6,0,4.7,2.1,4.7,4.7v32.6 C42.5,40.4,40.4,42.5,37.8,42.5"></path> </g> <path class="st1" d="M15.2,29.9c-1.1,0-2.1,0-3.1,0c-2.7,0-4.6-2-4.6-4.7c0-4.5,0-9,0-13.5c0-2.8,2-4.8,4.8-4.8c6.2,0,12.4,0,18.5,0 c2.6,0,4.5,1.7,4.6,4.4c0.1,4.8,0.1,9.6,0,14.4c0,2.5-1.9,4.3-4.5,4.3c-2.2,0-4.4,0-6.6,0c-0.6,0-1.1,0.2-1.5,0.6 c-1.6,1.6-3.3,3.3-5,4.9c-0.5,0.5-1,0.9-1.8,0.6c-0.7-0.3-0.9-1-0.8-1.7C15.2,32.9,15.2,31.5,15.2,29.9"></path> <path class="st0" d="M32.9,9.1c-0.3-0.3-0.7,0-1,0.4L20.6,22.4l-3.5-7.5c-0.5-1-1.2-0.8-3.3-0.8c-1.1,0-1.7,0.2-1.2,1.1l4.5,9.6 c0.3,0.7,1,1.1,1.8,1.1c0.3,0,0.6-0.1,0.8-0.2c0.3-0.1,0.5-0.3,0.7-0.6c0.1-0.1,0.2-0.3,0.2-0.4L32.8,10C33,9.7,33.1,9.4,32.9,9.1z"></path> </svg> 