<?xml version="1.0" encoding="UTF-8"?> <!-- Generator: Adobe Illustrator 23.1.1, SVG Export Plug-In . SVG Version: 6.00 Build 0) --> <svg xmlns="http://www.w3.org/2000/svg" xmlns:xlink="http://www.w3.org/1999/xlink" id="Ebene_1" x="0px" y="0px" width="43px" height="43px" viewBox="0 0 43 43" style="enable-background:new 0 0 43 43;" xml:space="preserve"> <style type="text/css"> .st0{fill:#52AED8;} .st1{fill:#FFFFFF;} </style> <g id="Umfrage_NEU"> <path class="st0" d="M38.2,43H4.8C2.2,43,0,40.8,0,38.2V4.8C0,2.2,2.2,0,4.8,0h33.4C40.8,0,43,2.2,43,4.8v33.4 C43,40.8,40.8,43,38.2,43z"></path> <g> <rect x="11.9" y="14.8" class="st1" width="15.2" height="1"></rect> <rect x="11.9" y="22.1" class="st1" width="6.3" height="1"></rect> <rect x="11.9" y="18.5" class="st1" width="19.2" height="1"></rect> <path class="st1" d="M15.1,30C14,30,13,30,12,30c-2.7,0-4.7-2-4.7-4.7c0-4.6,0-9.1,0-13.7c0-2.9,2-4.9,4.9-4.9 c6.3,0,12.5,0,18.8,0c2.6,0,4.6,1.8,4.6,4.4c0.1,4.9,0.1,9.7,0,14.6c0,2.6-1.9,4.3-4.5,4.3c-2.2,0-4.5,0-6.7,0 c-0.6,0-1.1,0.2-1.5,0.6c-1.7,1.7-3.4,3.3-5.1,4.9c-0.5,0.5-1,0.9-1.8,0.6c-0.7-0.3-0.9-1-0.9-1.7C15.1,33.1,15.1,31.6,15.1,30 M18,31.4c1.3-1.3,2.5-2.5,3.7-3.5c0.4-0.4,1.1-0.7,1.7-0.7c2.5-0.1,5.1,0,7.6,0c1.2,0,1.8-0.6,1.8-1.8c0-4.7,0-9.3,0-14 c0-1.1-0.5-1.6-1.6-1.6c-6.4,0-12.8,0-19.2,0c-1.3,0-1.9,0.7-1.9,1.9c0,4.4,0,8.8,0,13.3c0,1.4,0.7,2.1,2.1,2.1c1.3,0,2.5,0,3.8,0 s1.9,0.6,1.9,1.9C18,29.8,18,30.5,18,31.4"></path> </g> </g> </svg> 