<?xml version="1.0" encoding="utf-8"?>
<!-- Generator: Adobe Illustrator 23.1.1, SVG Export Plug-In . SVG Version: 6.00 Build 0)  -->
<svg version="1.1" id="Ebene_1" xmlns="http://www.w3.org/2000/svg" xmlns:xlink="http://www.w3.org/1999/xlink" x="0px" y="0px"
	 width="43px" height="43px" viewBox="0 0 43 43" style="enable-background:new 0 0 43 43;" xml:space="preserve">
<style type="text/css">
	.st0{fill:#378992;}
	.st1{fill:#FFFFFF;}
</style>
<g id="VR_x2F_AR">
	<g>
		<path class="st0" d="M38.2,43H4.8C2.2,43,0,40.8,0,38.2V4.8C0,2.2,2.2,0,4.8,0h33.4C40.8,0,43,2.2,43,4.8v33.4
			C43,40.8,40.8,43,38.2,43z"/>
		<path class="st1" d="M29.6,19H13.4C9.9,19,7,21.9,7,25.4v0.9c0,3.3,2.4,6.2,6,7.1c1.4,0.3,2.8-0.1,3.7-1.2l0.1-0.1l3.8-6.6
			c0.3-0.5,0.7-0.5,0.9-0.5l0,0c0.2,0,0.6,0.1,0.9,0.5l3.9,6.6l0.1,0.1c0.7,0.8,1.7,1.2,2.8,1.2c0.3,0,0.6,0,0.9-0.1
			c3.5-0.8,6-3.8,6-7.1v-0.9C36,21.9,33.1,19,29.6,19z"/>
		<circle class="st1" cx="28.5" cy="14.5" r="1.5"/>
		<g>
			<path class="st1" d="M37.6,15h-1c0-4.2-3.4-7.6-7.6-7.6v-1C33.8,6.4,37.6,10.2,37.6,15z"/>
			<path class="st1" d="M33.8,15h-1c0-2.1-1.7-3.8-3.8-3.8v-1C31.6,10.2,33.8,12.4,33.8,15z"/>
		</g>
	</g>
</g>
</svg>
